# xmcd
#
# Track frame offsets:
# 150
# 22378
# 48560
# 72921
# 83150
# 97097
# 125542
# 178446
# 203754
# 230403
# 250608
#
# Disc length: 3543 seconds
#
#
# Revision: 0
# Processed by: cddbd v1.5.2PL0 Copyright (c) Steve Scherf et al.
# Submitted via: FreeRIP 2.945 
#
DISCID=9f0dd50b
DTITLE=Erika Haase - Étude pour piano III: Liszt
DYEAR=2006
DGENRE=Classical
TTITLE0=Grandes Études de Paganini 1 G minor (Tremolo)
TTITLE1=Grandes Études de Paganini 2 E flat major (Octave)
TTITLE2=Grandes Études de Paganini 3 G sharp minor (La Campanella)
TTITLE3=Grandes Études de Paganini 4 E major (Arpeggio)
TTITLE4=Grandes Études de Paganini 5 E major (La Chasse)
TTITLE5=Grandes Études de Paganini 6 A minor (Theme and variations)
TTITLE6=Trois Études de Concert 1 A flat major: Il Lamento
TTITLE7=Trois Études de Concert 2 F minor: La Leggierezza
TTITLE8=Trois Études de Concert 3 D flat major: Un Sospiro
TTITLE9=Zwei Konzertetüden 1: Waldesrauschen D flat major
TTITLE10=Zwei Konzertetüden 2. Gnomenreigen F sharp major
EXTD=
EXTT0=
EXTT1=
EXTT2=
EXTT3=
EXTT4=
EXTT5=
EXTT6=
EXTT7=
EXTT8=
EXTT9=
EXTT10=
PLAYORDER=
